#N canvas 243 47 1051 778 12;
#X msg 11 93 \; pd dsp 1 \;;
#X obj 96 38 bng 15 250 50 0 empty empty empty 17 7 0 10 -262144 -1
-1;
#X obj 109 62 s initBang;
#X obj 96 11 loadbang;
#X obj 93 140 s visualsMsg;
#X msg 94 93 saturation 50 \, brightness 50 \, lod 4 \, falloff 0.5
\, velocity 5 \, threshold 0 \, size 10;
#X obj 42 192 r initBang;
#X obj 45 249 soundfiler;
#X floatatom 44 279 8 0 0 0 - - -;
#N canvas 0 22 450 278 (subpatch) 0;
#X array buffer1 99614 float 2;
#X coords 0 1 99614 -1 200 140 1;
#X restore 138 267 graph;
#X obj 19 225 bng 15 250 50 0 empty empty empty 17 7 0 10 -262144 -1
-1;
#X msg 44 221 read -resize ./data/ray-gun.wav buffer1;
#X obj 47 538 bng 15 250 50 0 empty empty empty 17 7 0 10 -262144 -1
-1;
#X obj 48 561 tgl 15 0 empty empty empty 17 7 0 10 -262144 -1 -1 1
1;
#X obj 154 1328 *~ 0.2;
#X obj 154 1359 dac~;
#X obj 293 1230 r initBang;
#X msg 293 1258 10;
#X obj 297 1287 hsl 128 15 0 127 0 0 empty empty empty -2 -8 0 10 -262144
-1 -1 1000 1;
#X obj 294 1308 / 127;
#X obj 48 581 metro 3000;
#X obj 196 987 line~;
#X floatatom 117 853 10 0 0 0 - - -;
#X msg 54 717 set 1;
#X msg 179 947 \$1 \, \$2 \$3;
#X obj 179 885 pack f f f;
#X msg 302 721 1;
#X obj 107 641 bng 15 250 50 0 empty empty empty 17 7 0 10 -262144
-1 -1;
#X obj 243 648 bng 15 250 50 0 empty empty empty 17 7 0 10 -262144
-1 -1;
#X msg 111 695 set 144637;
#X msg 202 706 144637;
#X obj 196 1026 tabread4~ buffer1;
#X obj 110 899 bng 15 250 50 0 empty empty empty 17 7 0 10 -262144
-1 -1;
#X obj 165 984 bng 15 250 50 0 empty empty empty 17 7 0 10 -262144
-1 -1;
#X obj 376 712 hsl 128 15 0 127 0 0 empty empty empty -2 -8 0 10 -262144
-1 -1 4900 1;
#X obj 373 737 / 127;
#X obj 374 794 + 500;
#X floatatom 393 849 5 0 0 0 - - -;
#X obj 373 764 * 6500;
#X text 395 670 Adjust both the metro length;
#X text 394 685 and the length of buffer1 playback;
#X obj 363 646 loadbang;
#X msg 363 672 127;
#X obj 156 477 r initBang;
#X obj 161 531 hsl 128 15 0 127 0 0 empty empty empty -2 -8 0 10 -262144
-1 -1 9800 1;
#X obj 157 555 / 127;
#X obj 163 584 * 3000;
#X obj 44 310 s size1;
#X obj 196 1101 *~;
#X obj 262 1120 osc~;
#X obj 361 961 vsl 15 128 0 127 0 0 empty empty empty 0 -9 0 10 -262144
-1 -1 0 1;
#X obj 361 1108 / 127;
#X msg 156 505 100;
#X obj 363 1146 * 20000;
#X obj 107 616 r initBang;
#X obj 549 988 vsl 15 128 1 1000 0 0 empty empty empty 0 -9 0 10 -262144
-1 -1 6800 1;
#X floatatom 507 1139 5 0 0 0 - - -;
#X obj 577 1061 delwrite~ sample 1000;
#X obj 579 1141 delread~ sample 1000;
#X obj 578 1167 s~ loop;
#X obj 705 1102 *~ 0.7;
#X obj 752 960 vsl 15 128 0 0.7 0 0 empty empty empty 0 -9 0 10 -262144
-1 -1 12100 1;
#X floatatom 773 1102 5 0 0 0 - - -;
#X text 776 956 Control gain on delay;
#X text 777 972 0 - 0.7;
#X text 579 1002 1 - 1000;
#X text 577 1192 Goes to DAC~;
#X obj 549 955 r delayMsg;
#X obj 753 925 r delayGainMsg;
#X text 577 986 Control delay;
#X obj 755 1133 oscformat main delayGain;
#X obj 545 1228 oscformat main delay;
#X obj 731 860 r initBang;
#X msg 731 886 0;
#X obj 532 882 r initBang;
#X msg 532 909 0;
#X obj 545 1256 s messageOut;
#X obj 756 1166 s messageOut;
#X text 559 826 This section controls the looper;
#X connect 1 0 2 0;
#X connect 1 0 0 0;
#X connect 1 0 5 0;
#X connect 3 0 1 0;
#X connect 5 0 4 0;
#X connect 6 0 11 0;
#X connect 6 0 10 0;
#X connect 7 0 8 0;
#X connect 8 0 47 0;
#X connect 11 0 7 0;
#X connect 12 0 13 0;
#X connect 13 0 20 0;
#X connect 14 0 15 0;
#X connect 14 0 15 1;
#X connect 16 0 17 0;
#X connect 17 0 18 0;
#X connect 18 0 19 0;
#X connect 19 0 14 1;
#X connect 20 0 22 0;
#X connect 21 0 31 0;
#X connect 22 0 25 0;
#X connect 22 0 32 0;
#X connect 23 0 22 0;
#X connect 24 0 21 0;
#X connect 24 0 33 0;
#X connect 25 0 24 0;
#X connect 26 0 25 1;
#X connect 27 0 23 0;
#X connect 27 0 30 0;
#X connect 28 0 29 0;
#X connect 28 0 26 0;
#X connect 29 0 22 0;
#X connect 30 0 25 1;
#X connect 31 0 48 0;
#X connect 31 0 57 0;
#X connect 34 0 35 0;
#X connect 35 0 38 0;
#X connect 36 0 37 0;
#X connect 36 0 25 2;
#X connect 38 0 36 0;
#X connect 41 0 42 0;
#X connect 42 0 34 0;
#X connect 43 0 52 0;
#X connect 44 0 45 0;
#X connect 45 0 46 0;
#X connect 46 0 20 1;
#X connect 48 0 14 0;
#X connect 50 0 51 0;
#X connect 51 0 53 0;
#X connect 52 0 44 0;
#X connect 53 0 49 1;
#X connect 54 0 27 0;
#X connect 55 0 56 0;
#X connect 55 0 58 0;
#X connect 55 0 71 0;
#X connect 58 0 59 0;
#X connect 58 0 60 0;
#X connect 58 0 14 0;
#X connect 60 0 57 0;
#X connect 61 0 60 1;
#X connect 61 0 62 0;
#X connect 61 0 70 0;
#X connect 67 0 55 0;
#X connect 68 0 61 0;
#X connect 70 0 77 0;
#X connect 71 0 76 0;
#X connect 72 0 73 0;
#X connect 73 0 61 0;
#X connect 74 0 75 0;
#X connect 75 0 55 0;
